<?xml version="1.0" standalone="no"?>
<!DOCTYPE svg PUBLIC "-//W3C//DTD SVG 20010904//EN"
 "http://www.w3.org/TR/2001/REC-SVG-20010904/DTD/svg10.dtd">
<svg version="1.0" xmlns="http://www.w3.org/2000/svg"
 width="256.000000pt" height="256.000000pt" viewBox="0 0 256.000000 256.000000"
 preserveAspectRatio="xMidYMid meet">
<metadata>
Created by potrace 1.11, written by Peter Selinger 2001-2013
</metadata>
<g transform="translate(0.000000,256.000000) scale(0.100000,-0.100000)"
fill="#000000" stroke="none">
<path d="M1099 2545 c-286 -47 -508 -156 -707 -349 -374 -362 -490 -908 -297
-1392 132 -328 404 -596 730 -717 184 -68 389 -96 568 -78 306 32 556 145 765
345 383 367 502 914 307 1402 -158 393 -508 687 -920 774 -131 27 -331 34
-446 15z m454 -664 c115 -37 173 -105 197 -229 37 -188 -45 -363 -210 -446
-84 -42 -180 -59 -305 -54 l-95 3 0 -172 0 -172 33 -5 c17 -3 67 -8 110 -11
l77 -7 0 -39 0 -39 -260 0 -260 0 0 39 0 40 48 6 c26 3 54 7 62 8 13 2 15 66
18 499 l2 497 -47 6 c-81 11 -83 12 -83 55 l0 40 173 3 c338 7 465 2 540 -22z"/>
<path d="M1158 1813 c-17 -4 -18 -26 -18 -284 l0 -279 25 -6 c14 -3 69 -4 123
-2 84 3 104 8 150 32 97 54 135 133 136 286 0 80 -3 103 -23 143 -27 55 -74
91 -141 106 -44 10 -218 13 -252 4z"/>
</g>
</svg>
